<?xml version="1.0" standalone="no"?>
<!DOCTYPE svg PUBLIC "-//W3C//DTD SVG 20010904//EN"
 "http://www.w3.org/TR/2001/REC-SVG-20010904/DTD/svg10.dtd">
<svg version="1.0" xmlns="http://www.w3.org/2000/svg"
 width="450.000000pt" height="450.000000pt" viewBox="0 0 450.000000 450.000000"
 preserveAspectRatio="xMidYMid meet">
<metadata>
Created by potrace 1.14, written by Peter Selinger 2001-2017
</metadata>
<g transform="translate(0.000000,450.000000) scale(0.100000,-0.100000)"
fill="#000000" stroke="none">
<path d="M2119 4455 c-2 -2 -35 -6 -74 -9 -38 -4 -77 -9 -85 -11 -8 -2 -31 -7
-50 -9 -19 -3 -44 -7 -55 -10 -11 -2 -51 -12 -90 -21 -276 -65 -570 -206 -815
-391 -113 -85 -321 -289 -388 -379 -4 -5 -29 -38 -55 -72 -26 -34 -47 -66 -47
-71 0 -5 -9 -17 -20 -27 -11 -10 -20 -24 -20 -32 0 -7 -3 -13 -8 -13 -4 0 -13
-15 -21 -32 -8 -18 -17 -35 -21 -38 -8 -6 -110 -217 -133 -275 -45 -115 -99
-297 -113 -385 -2 -14 -6 -34 -9 -46 -3 -12 -7 -39 -10 -60 -4 -21 -9 -50 -11
-64 -3 -14 -7 -115 -9 -225 -3 -191 8 -327 35 -460 6 -27 12 -61 15 -74 7 -40
55 -205 65 -226 5 -11 20 -49 33 -85 34 -92 119 -270 129 -270 4 0 8 -9 8 -20
0 -11 3 -20 8 -20 4 0 16 -17 27 -37 20 -38 104 -163 115 -173 3 -3 13 -14 21
-26 45 -66 231 -263 311 -330 71 -59 157 -124 165 -124 5 0 15 -9 23 -19 7
-11 17 -18 22 -15 4 3 8 1 8 -5 0 -5 9 -13 20 -16 11 -3 26 -12 32 -18 7 -7
31 -22 53 -34 22 -11 67 -36 100 -53 189 -102 455 -189 687 -225 18 -3 49 -8
68 -11 62 -9 423 -13 475 -5 28 5 79 12 114 15 36 4 67 9 70 11 4 2 24 6 46 9
22 4 81 18 130 32 50 14 97 27 105 29 86 19 388 159 488 226 24 16 47 29 51
29 4 0 16 9 26 20 10 11 24 20 31 20 7 0 14 3 16 8 1 4 32 29 68 57 119 91
256 222 340 325 25 30 51 61 57 68 29 30 164 244 211 332 45 85 137 302 147
347 2 10 16 61 30 113 28 104 33 125 41 185 3 22 10 60 15 85 9 49 6 590 -4
630 -4 14 -11 48 -17 75 -34 177 -96 378 -149 483 -17 34 -28 62 -25 62 4 0 1
6 -5 13 -6 8 -27 45 -47 83 -20 38 -58 102 -85 143 -27 41 -49 78 -49 82 0 5
-3 9 -7 9 -5 0 -21 21 -38 45 -16 25 -33 45 -37 45 -5 0 -8 4 -8 9 0 17 -220
249 -286 301 -10 8 -39 31 -64 50 -25 19 -46 38 -48 43 -2 4 -10 7 -17 7 -7 0
-15 4 -17 9 -14 37 -480 288 -501 269 -2 -1 -10 2 -18 9 -14 11 -227 79 -278
88 -14 3 -37 7 -51 10 -113 24 -243 37 -416 40 -111 2 -203 3 -205 0z"/>
</g>
</svg>
